<?xml version="1.0" standalone="no"?>
<!DOCTYPE svg PUBLIC "-//W3C//DTD SVG 20010904//EN"
 "http://www.w3.org/TR/2001/REC-SVG-20010904/DTD/svg10.dtd">
<svg version="1.0" xmlns="http://www.w3.org/2000/svg"
 width="300.000000pt" height="110.000000pt" viewBox="0 0 300.000000 110.000000"
 preserveAspectRatio="xMidYMid meet">
<metadata>
Created by potrace 1.10, written by Peter Selinger 2001-2011
</metadata>
<g transform="translate(0.000000,110.000000) scale(0.100000,-0.100000)"
fill="#000000" stroke="none">
<path d="M463 918 c-5 -18 -7 -61 -5 -95 3 -48 7 -63 19 -63 13 0 15 10 11 55
-4 41 -1 55 9 55 7 0 13 5 13 10 0 6 -7 10 -15 10 -8 0 -15 7 -15 15 0 9 7 18
15 21 21 9 19 24 -5 24 -13 0 -22 -10 -27 -32z"/>
<path d="M1302 916 c4 -22 2 -23 -37 -18 -37 4 -45 1 -63 -23 -27 -35 -28 -55
-1 -89 18 -23 27 -26 75 -25 l54 2 0 88 c0 75 -2 89 -16 89 -12 0 -15 -7 -12
-24z m-6 -61 c15 -23 15 -27 0 -50 -29 -44 -86 -28 -86 25 0 53 57 69 86 25z"/>
<path d="M656 903 c-12 -13 -6 -99 9 -121 13 -17 24 -21 61 -20 l45 2 -3 71
c-4 83 -22 90 -26 11 -2 -44 -7 -56 -22 -61 -32 -10 -40 3 -40 60 0 51 -9 73
-24 58z"/>
<path d="M920 828 c0 -55 3 -68 16 -68 13 0 15 7 9 39 -8 47 7 81 36 81 25 0
37 -33 31 -82 -3 -30 -1 -38 12 -38 13 0 16 11 16 53 0 67 -18 87 -78 84 l-42
-1 0 -68z"/>
<path d="M1497 882 c-23 -25 -21 -78 3 -102 22 -22 69 -27 88 -8 9 9 12 9 12
0 0 -7 5 -12 10 -12 6 0 10 29 10 68 l0 68 -53 2 c-41 2 -58 -2 -70 -16z m87
-18 c21 -20 20 -37 -2 -64 -38 -47 -102 5 -72 59 13 25 52 28 74 5z"/>
<path d="M1781 874 c-12 -15 -21 -34 -21 -44 0 -33 39 -70 73 -70 42 0 66 15
51 30 -9 9 -14 9 -18 1 -9 -15 -49 -14 -64 1 -17 17 -15 63 3 78 9 7 27 10 45
7 31 -7 50 7 24 17 -36 14 -73 6 -93 -20z"/>
<path d="M2035 830 c0 -49 4 -70 13 -70 8 0 12 21 12 70 0 49 -4 70 -12 70 -9
0 -13 -21 -13 -70z"/>
<path d="M2231 874 c-12 -15 -21 -34 -21 -44 0 -34 39 -70 75 -70 36 0 75 36
75 70 0 34 -39 70 -75 70 -24 0 -39 -7 -54 -26z m87 -6 c7 -7 12 -24 12 -38 0
-31 -17 -50 -45 -50 -28 0 -45 19 -45 50 0 31 17 50 45 50 12 0 26 -5 33 -12z"/>
<path d="M2510 828 c0 -79 18 -93 22 -17 3 55 21 78 52 66 12 -5 16 -20 16
-62 0 -30 5 -55 10 -55 16 0 12 116 -4 129 -7 6 -32 10 -55 9 l-41 -1 0 -69z"/>
<path d="M1832 678 c2 -15 11 -24 26 -26 18 -3 22 1 22 22 0 21 -5 26 -26 26
-21 0 -25 -4 -22 -22z"/>
<path d="M1977 498 l2 -203 23 0 c16 0 23 6 22 18 -2 22 2 21 33 -3 37 -29
119 -27 163 2 50 34 72 71 78 126 12 127 -117 217 -228 160 l-46 -23 4 62 4
63 -28 0 -29 0 2 -202z m234 36 c75 -71 26 -196 -76 -196 -46 0 -83 25 -101
69 -18 41 -11 81 18 118 41 52 110 56 159 9z"/>
<path d="M986 654 c-9 -23 -8 -24 19 -24 23 0 24 2 13 20 -15 24 -24 25 -32 4z"/>
<path d="M907 653 c-4 -3 -7 -15 -7 -25 0 -19 16 -23 38 -10 10 7 8 12 -6 25
-10 9 -22 14 -25 10z"/>
<path d="M1071 641 l-24 -19 22 -7 c27 -8 34 -3 29 24 -3 20 -4 20 -27 2z"/>
<path d="M537 597 c-43 -22 -47 -23 -42 -6 5 15 1 19 -19 19 l-26 0 0 -205 0
-205 26 0 27 0 -5 69 -5 68 35 -23 c97 -67 242 13 242 133 0 127 -123 206
-233 150z m118 -43 c34 -16 65 -65 65 -104 0 -29 -26 -76 -52 -94 -28 -20 -80
-20 -116 -2 -78 40 -72 162 9 203 32 17 54 16 94 -3z"/>
<path d="M1594 609 c-18 -5 -48 -27 -67 -48 -60 -67 -62 -152 -4 -214 17 -19
42 -39 54 -46 35 -18 114 -13 151 9 35 22 39 32 18 49 -12 10 -20 9 -40 -4
-53 -35 -133 -13 -163 46 -23 44 -16 86 21 127 30 32 40 37 79 37 30 0 52 -6
66 -19 21 -19 22 -19 35 0 13 16 12 21 -1 36 -16 18 -74 39 -103 37 -8 0 -29
-5 -46 -10z"/>
<path d="M834 593 c3 -8 6 -22 6 -30 0 -14 3 -14 20 2 22 20 20 30 -11 38 -15
4 -19 2 -15 -10z"/>
<path d="M924 596 c-76 -33 -110 -156 -62 -226 48 -71 138 -101 201 -69 27 14
87 70 87 81 0 14 -57 9 -70 -6 -21 -27 -76 -39 -115 -26 -32 11 -75 51 -75 71
0 5 61 9 135 9 l135 0 0 33 c0 45 -29 98 -69 124 -39 27 -117 31 -167 9z m31
-79 c0 -41 0 -42 -32 -42 -19 0 -33 5 -33 12 0 13 48 73 58 73 4 0 7 -19 7
-43z m129 18 c40 -37 36 -57 -11 -60 -29 -2 -30 0 -21 20 7 16 7 29 -1 44 -16
28 0 27 33 -4z m-56 -14 c4 -29 -15 -43 -40 -30 -18 10 -24 39 -11 53 15 15
48 1 51 -23z"/>
<path d="M1141 599 c-23 -9 -23 -10 -5 -30 l18 -21 8 28 c9 34 9 34 -21 23z"/>
<path d="M1830 450 l0 -160 25 0 25 0 0 160 0 160 -25 0 -25 0 0 -160z"/>
<path d="M2340 607 c0 -2 29 -73 63 -158 51 -122 68 -154 83 -154 15 0 31 30
76 140 78 189 75 177 42 173 -26 -3 -32 -12 -73 -121 l-45 -118 -46 118 c-41
108 -48 118 -73 121 -15 2 -27 2 -27 -1z"/>
<path d="M1312 584 c-12 -8 -22 -10 -22 -5 0 6 -11 11 -25 11 l-25 0 0 -150 0
-150 25 0 25 0 0 113 c0 98 3 116 18 130 21 19 54 22 83 6 15 -7 24 -7 35 2
21 17 18 25 -20 43 -43 20 -66 20 -94 0z"/>
<path d="M802 531 l-24 -6 21 -19 c18 -17 21 -17 27 -3 9 25 1 34 -24 28z"/>
<path d="M1166 516 c9 -29 11 -31 29 -16 21 18 19 27 -10 32 -22 5 -25 3 -19
-16z"/>
</g>
</svg>
